<?xml version="1.0" encoding="UTF-8" standalone="no"?>
<svg
   xmlns:dc="http://purl.org/dc/elements/1.1/"
   xmlns:cc="http://creativecommons.org/ns#"
   xmlns:rdf="http://www.w3.org/1999/02/22-rdf-syntax-ns#"
   xmlns:svg="http://www.w3.org/2000/svg"
   xmlns="http://www.w3.org/2000/svg"
   xmlns:sodipodi="http://sodipodi.sourceforge.net/DTD/sodipodi-0.dtd"
   xmlns:inkscape="http://www.inkscape.org/namespaces/inkscape"
   inkscape:version="1.0 (6e3e5246a0, 2020-05-07)"
   sodipodi:docname="Icono_BATERIAS_Electro3WEB.svg"
   id="svg10"
   viewBox="0 0 2976.9526 2083.0351"
   style="clip-rule:evenodd;fill-rule:evenodd;image-rendering:optimizeQuality;shape-rendering:geometricPrecision;text-rendering:geometricPrecision"
   version="1.1"
   height="20.830351mm"
   width="29.769526mm"
   xml:space="preserve"><metadata
   id="metadata14"><rdf:RDF><cc:Work
       rdf:about=""><dc:format>image/svg+xml</dc:format><dc:type
         rdf:resource="http://purl.org/dc/dcmitype/StillImage" /><dc:title></dc:title></cc:Work></rdf:RDF></metadata><sodipodi:namedview
   inkscape:current-layer="svg10"
   inkscape:window-maximized="0"
   inkscape:window-y="27"
   inkscape:window-x="66"
   inkscape:cy="39.359815"
   inkscape:cx="56.255629"
   inkscape:zoom="0.77504209"
   fit-margin-bottom="0"
   fit-margin-right="0"
   fit-margin-left="0"
   fit-margin-top="0"
   showgrid="false"
   id="namedview12"
   inkscape:window-height="480"
   inkscape:window-width="837"
   inkscape:pageshadow="2"
   inkscape:pageopacity="0"
   guidetolerance="10"
   gridtolerance="10"
   objecttolerance="10"
   borderopacity="1"
   bordercolor="#666666"
   pagecolor="#ffffff" />
 <defs
   id="defs4">
  <style
   id="style2"
   type="text/css">
   <![CDATA[
    .fil0 {fill:#ED262D}
   ]]>
  </style>
 </defs>
 <g
   transform="translate(-9011.5698,-13808.605)"
   id="Capa_x0020_1">
  <metadata
   id="CorelCorpID_0Corel-Layer" />
  <path
   id="path7"
   d="m 9260,13995 c -62,0 -115,-8 -166,20 -65,37 -70,90 -80,101 1,16 -2,43 -2,62 v 191 c 0,84 0,168 0,252 v 1015 c 0,92 -8,152 45,206 51,52 117,51 207,48 h 924 932 l 568,1 c 47,0 143,4 183,-8 47,-13 83,-48 101,-87 21,-48 15,-119 15,-177 l -1,-1140 c 0,-70 9,-325 -7,-372 -16,-50 -49,-81 -91,-100 -47,-20 -122,-12 -177,-13 -2,-32 4,-142 -3,-163 -7,-25 -32,-22 -59,-22 h -165 c -92,0 -63,8 -68,185 l -297,1 h -311 -308 -310 -310 l -298,-1 c -6,-32 7,-146 -4,-167 -2,-4 -4,-5 -6,-8 l -5,-7 c -74,-5 -155,-3 -232,-3 -53,0 -47,21 -47,69 0,39 1,78 0,117 z m 1315,1066 c -2,31 -124,400 -124,445 0,128 185,165 227,28 l 98,-333 c 14,-50 58,-185 66,-222 10,-44 -2,-84 -26,-110 -25,-26 -54,-37 -104,-37 -93,0 -195,3 -287,-1 4,-27 25,-84 34,-111 16,-51 99,-304 101,-335 7,-123 -177,-186 -228,-31 -12,37 -24,76 -35,111 -44,147 -92,296 -138,443 -14,43 -3,85 21,112 25,28 53,42 105,41 92,0 201,6 290,0 z m 932,-676 c -104,5 -176,-21 -176,58 0,85 47,66 150,67 h 27 c 1,139 -20,176 70,176 69,0 54,-63 54,-149 v -26 c 112,-5 176,22 176,-61 1,-78 -49,-65 -159,-64 h -16 v -120 c 0,-82 -97,-57 -111,-43 -26,25 -14,118 -15,162 z m -2281,3 c -56,15 -34,94 -26,104 22,28 89,18 132,18 40,0 281,3 299,-1 49,-12 38,-89 25,-105 -22,-28 -90,-18 -133,-18 -46,0 -271,-5 -297,2 z"
   class="fil0" />
 </g>
</svg>
