<?xml version="1.0" encoding="UTF-8" standalone="no"?>
<svg
   xmlns:dc="http://purl.org/dc/elements/1.1/"
   xmlns:cc="http://creativecommons.org/ns#"
   xmlns:rdf="http://www.w3.org/1999/02/22-rdf-syntax-ns#"
   xmlns:svg="http://www.w3.org/2000/svg"
   xmlns="http://www.w3.org/2000/svg"
   xmlns:sodipodi="http://sodipodi.sourceforge.net/DTD/sodipodi-0.dtd"
   xmlns:inkscape="http://www.inkscape.org/namespaces/inkscape"
   inkscape:version="1.0 (6e3e5246a0, 2020-05-07)"
   sodipodi:docname="Icono_COMPACTACION_Electro3WEB.svg"
   id="svg10"
   viewBox="0 0 4605.0663 4379.8347"
   style="clip-rule:evenodd;fill-rule:evenodd;image-rendering:optimizeQuality;shape-rendering:geometricPrecision;text-rendering:geometricPrecision"
   version="1.1"
   height="43.798347mm"
   width="46.050663mm"
   xml:space="preserve"><metadata
   id="metadata14"><rdf:RDF><cc:Work
       rdf:about=""><dc:format>image/svg+xml</dc:format><dc:type
         rdf:resource="http://purl.org/dc/dcmitype/StillImage" /><dc:title></dc:title></cc:Work></rdf:RDF></metadata><sodipodi:namedview
   inkscape:current-layer="svg10"
   inkscape:window-maximized="0"
   inkscape:window-y="27"
   inkscape:window-x="66"
   inkscape:cy="82.765408"
   inkscape:cx="87.029119"
   inkscape:zoom="0.77504209"
   fit-margin-bottom="0"
   fit-margin-right="0"
   fit-margin-left="0"
   fit-margin-top="0"
   showgrid="false"
   id="namedview12"
   inkscape:window-height="480"
   inkscape:window-width="837"
   inkscape:pageshadow="2"
   inkscape:pageopacity="0"
   guidetolerance="10"
   gridtolerance="10"
   objecttolerance="10"
   borderopacity="1"
   bordercolor="#666666"
   pagecolor="#ffffff" />
 <defs
   id="defs4">
  <style
   id="style2"
   type="text/css">
   <![CDATA[
    .fil0 {fill:#A8CF45}
   ]]>
  </style>
 </defs>
 <g
   transform="translate(-8197.3546,-12660.165)"
   id="Capa_x0020_1">
  <metadata
   id="CorelCorpID_0Corel-Layer" />
  <path
   id="path7"
   d="m 10276,16777 2,-1012 c -130,-12 -1179,-3 -1402,-3 -329,0 -147,10 -417,-44 31,73 83,152 128,229 42,74 85,143 132,227 71,127 192,362 273,447 163,169 281,158 565,158 215,0 514,17 719,-2 z M 8959,13712 c 61,46 150,90 211,124 115,65 616,370 669,374 l 682,-1177 c 69,-117 126,-239 220,-325 24,-22 24,-15 34,-44 -234,-8 -478,-1 -712,-1 -277,0 -407,-12 -571,148 -83,81 -203,319 -275,445 -30,51 -251,419 -258,456 z m 2439,895 c 17,66 172,303 220,390 142,258 310,528 448,779 52,96 129,205 163,303 12,37 20,95 32,122 28,-16 367,-620 432,-734 223,-387 66,-510 -123,-857 -43,-79 -93,-160 -143,-247 -48,-83 -104,-168 -144,-254 -57,2 -577,315 -667,369 -46,28 -186,98 -218,129 z m -528,-895 c -54,61 -171,84 -225,147 59,19 383,43 468,48 156,10 326,42 481,41 48,-99 380,-807 389,-862 -83,18 -153,102 -228,112 -102,-137 -153,-336 -312,-447 -174,-121 -415,-115 -582,8 -83,60 -118,121 -171,210 -25,42 -42,75 -67,118 -71,124 -67,79 108,376 38,65 118,188 139,249 z m 436,3328 2,-260 c 162,-8 350,21 493,-25 136,-43 221,-122 283,-233 162,-294 -10,-507 -159,-760 l -614,1 -5,-277 c -28,10 -552,768 -553,776 -1,28 235,345 268,392 48,70 90,128 137,194 24,34 119,179 148,192 z m -2138,-2664 -955,86 c 48,62 161,79 217,145 -11,39 -69,129 -89,166 -96,169 -216,349 -88,592 152,290 442,311 759,278 l 302,-521 c 70,5 177,102 250,126 z"
   class="fil0" />
 </g>
</svg>
