<?xml version="1.0" encoding="UTF-8" standalone="no"?>
<svg
   xmlns:dc="http://purl.org/dc/elements/1.1/"
   xmlns:cc="http://creativecommons.org/ns#"
   xmlns:rdf="http://www.w3.org/1999/02/22-rdf-syntax-ns#"
   xmlns:svg="http://www.w3.org/2000/svg"
   xmlns="http://www.w3.org/2000/svg"
   xmlns:sodipodi="http://sodipodi.sourceforge.net/DTD/sodipodi-0.dtd"
   xmlns:inkscape="http://www.inkscape.org/namespaces/inkscape"
   inkscape:version="1.0 (6e3e5246a0, 2020-05-07)"
   sodipodi:docname="Icono_REDES_Y_TECNOLOGIA_Electro3WEB.svg"
   id="svg15"
   viewBox="0 0 6404.0001 4009.0019"
   style="clip-rule:evenodd;fill-rule:evenodd;image-rendering:optimizeQuality;shape-rendering:geometricPrecision;text-rendering:geometricPrecision"
   version="1.1"
   height="40.090019mm"
   width="64.040001mm"
   xml:space="preserve"><metadata
   id="metadata19"><rdf:RDF><cc:Work
       rdf:about=""><dc:format>image/svg+xml</dc:format><dc:type
         rdf:resource="http://purl.org/dc/dcmitype/StillImage" /><dc:title></dc:title></cc:Work></rdf:RDF></metadata><sodipodi:namedview
   inkscape:current-layer="svg15"
   inkscape:window-maximized="0"
   inkscape:window-y="27"
   inkscape:window-x="66"
   inkscape:cy="75.741806"
   inkscape:cx="121.02047"
   inkscape:zoom="0.77504209"
   fit-margin-bottom="0"
   fit-margin-right="0"
   fit-margin-left="0"
   fit-margin-top="0"
   showgrid="false"
   id="namedview17"
   inkscape:window-height="480"
   inkscape:window-width="837"
   inkscape:pageshadow="2"
   inkscape:pageopacity="0"
   guidetolerance="10"
   gridtolerance="10"
   objecttolerance="10"
   borderopacity="1"
   bordercolor="#666666"
   pagecolor="#ffffff" />
 <defs
   id="defs4">
  <style
   id="style2"
   type="text/css">
   <![CDATA[
    .fil1 {fill:#00AFEF}
    .fil0 {fill:#1A1A1A}
    .fil2 {fill:white}
   ]]>
  </style>
 </defs>
 <g
   transform="translate(-7298,-12845.998)"
   id="Capa_x0020_1">
  <metadata
   id="CorelCorpID_0Corel-Layer" />
  <g
   id="_2276405910336">
   <path
   id="path7"
   d="m 9762,12856 c -11,8 -39,21 -53,23 -10,12 -36,20 -52,27 -17,8 -38,19 -55,25 -6,4 -100,48 -108,49 -10,9 -95,47 -105,51 l -110,52 -214,97 -52,26 c -21,10 -93,47 -109,48 -11,13 -87,45 -105,51 -11,8 -40,20 -54,26 -15,7 -42,22 -55,23 -11,12 -88,45 -105,51 l -109,52 c -42,14 -189,95 -215,96 -9,11 -38,23 -51,27 -29,13 -148,75 -170,77 -8,9 -31,19 -44,23 -17,11 -28,12 -46,27 -16,13 -20,25 -34,39 -24,69 -34,89 -1,162 21,45 50,98 65,141 l 53,115 8,14 c 12,26 36,70 42,94 l 50,106 25,51 75,163 22,45 c 24,52 46,90 105,108 91,28 136,-28 169,-29 10,-11 90,-47 105,-52 13,-8 98,-48 110,-48 8,-9 87,-44 105,-53 20,-9 93,-46 109,-47 8,-10 39,-23 51,-27 22,-10 92,-47 109,-48 11,-12 90,-47 107,-51 4,-6 43,-22 52,-27 16,-7 41,-21 55,-22 9,-10 90,-46 105,-52 11,-7 39,-18 54,-25 16,-8 41,-22 56,-23 11,-12 84,-42 105,-52 21,-10 93,-47 108,-48 9,-10 39,-22 52,-26 24,-12 146,-73 162,-74 9,-9 39,-22 52,-26 11,-8 98,-48 109,-49 10,-11 80,-41 98,-48 19,-9 38,-20 52,-31 8,-7 12,-14 20,-23 5,-7 9,-16 16,-21 18,-84 31,-77 -19,-181 l -140,-302 c -11,-23 -67,-136 -69,-151 -12,-13 -42,-83 -52,-108 -9,-21 -46,-91 -47,-108 -14,-11 -21,-38 -30,-56 -3,-8 -10,-20 -15,-27 -9,-12 -12,-10 -19,-23 -7,-4 -6,-4 -12,-10 -12,-5 -18,-12 -33,-18 -12,-5 -25,-9 -39,-11 -33,-5 -53,0 -84,8 z m -170,1504 -39,18 c -20,8 -102,49 -114,50 -9,10 -82,42 -98,47 -22,11 -99,52 -116,52 -9,10 -82,43 -98,49 -20,8 -38,17 -57,26 -18,9 -39,17 -55,27 44,93 87,112 105,139 23,9 51,48 143,76 l 56,17 c 5,38 1,129 0,171 -2,119 -20,224 69,286 47,33 96,27 156,27 h 58 49 58 49 58 49 58 49 58 49 58 49 58 49 58 49 58 51 65 v -313 l -942,-2 v -241 c 5,-12 14,-16 24,-21 7,-14 20,-18 31,-30 4,-6 8,-11 12,-17 5,-5 10,-8 15,-13 4,-9 13,-19 19,-28 7,-11 11,-17 16,-27 12,-19 19,-41 29,-58 15,-58 30,-102 25,-166 -2,-28 -17,-132 -39,-150 z m -2294,-185 v 43 l 151,320 46,99 54,116 46,98 c 9,20 17,37 25,55 10,22 24,31 49,34 31,-3 32,-11 56,-19 9,-6 30,-14 42,-20 13,-7 26,-12 41,-19 42,-21 36,-61 50,-71 4,-16 63,-157 68,-165 7,-9 145,-71 156,-74 -5,-15 -79,-174 -84,-179 l -51,-113 -50,-104 -40,-91 -25,7 c -7,10 -31,19 -46,23 -10,8 -47,22 -62,30 -35,18 -26,8 -64,-2 -20,-4 -89,-22 -101,-33 -16,0 -34,-7 -49,-13 -73,-19 -75,4 -170,45 -37,16 -25,14 -42,33 z m 834,-354 1638,-760 c 31,-14 69,0 84,31 v 0 c 14,32 0,69 -31,84 l -1638,759 c -32,15 -69,1 -84,-30 v 0 c -15,-32 -1,-70 31,-84 z"
   class="fil0" />
   <circle
   id="circle9"
   r="1746"
   cy="15109"
   cx="11956"
   class="fil1" />
   <path
   id="path11"
   d="m 11878,14945 418,413 c -123,173 -528,574 -923,949 l 100,104 c 299,-291 640,-650 781,-791 40,-40 73,-72 114,-111 61,-60 154,-125 107,-194 -19,-27 -37,-26 -57,-65 71,-74 275,-198 421,-206 66,143 224,127 293,30 108,-151 -102,-344 -253,-210 -46,41 -23,22 -96,31 -139,18 -306,111 -414,194 -29,22 -39,44 -80,44 l -16,-20 c 10,-36 143,-147 198,-200 l 359,-316 c 46,11 97,40 169,3 89,-45 132,-180 32,-271 -77,-69 -224,-39 -262,59 -33,86 17,56 -63,116 -66,49 -124,105 -190,159 l -179,170 c -19,17 -26,17 -46,35 -41,39 -89,99 -135,128 -19,-11 -13,-8 -29,-22 26,-42 73,-79 109,-124 159,-200 329,-400 403,-654 15,-52 3,-52 43,-75 152,-87 101,-236 14,-290 -121,-75 -269,39 -252,162 6,40 18,58 37,81 27,34 27,22 8,77 -69,196 -217,436 -359,583 -44,47 -62,86 -120,125 -15,-20 -8,-13 -29,-27 7,-27 81,-142 112,-215 34,-78 61,-162 61,-262 7,-32 110,-58 88,-196 -11,-68 -80,-126 -160,-127 -85,-1 -148,53 -165,121 -31,126 57,147 85,202 -8,126 -80,280 -139,354 -22,-35 -82,-72 -135,-37 -276,181 -620,626 -978,989 l 110,114 c 333,-350 679,-791 918,-929 29,22 80,71 100,99 z m 171,-825 c -110,52 -40,190 64,151 93,-35 40,-201 -64,-151 z m 916,786 c -100,30 -62,186 56,155 97,-26 55,-189 -56,-155 z m -377,-1009 c -30,13 -37,10 -51,36 -11,22 -12,45 -5,69 11,36 55,66 105,49 111,-36 43,-194 -49,-154 z m 305,480 c -100,34 -50,194 63,153 90,-33 46,-190 -63,-153 z"
   class="fil2" />
  </g>
 </g>
</svg>
