<?xml version="1.0" encoding="UTF-8" standalone="no"?>
<svg
   xmlns:dc="http://purl.org/dc/elements/1.1/"
   xmlns:cc="http://creativecommons.org/ns#"
   xmlns:rdf="http://www.w3.org/1999/02/22-rdf-syntax-ns#"
   xmlns:svg="http://www.w3.org/2000/svg"
   xmlns="http://www.w3.org/2000/svg"
   xmlns:sodipodi="http://sodipodi.sourceforge.net/DTD/sodipodi-0.dtd"
   xmlns:inkscape="http://www.inkscape.org/namespaces/inkscape"
   inkscape:version="1.0 (6e3e5246a0, 2020-05-07)"
   sodipodi:docname="Logo_Instagram_Electro3WEB.svg"
   id="svg18"
   viewBox="0 0 2613.9999 2613.9999"
   style="clip-rule:evenodd;fill-rule:evenodd;image-rendering:optimizeQuality;shape-rendering:geometricPrecision;text-rendering:geometricPrecision"
   version="1.1"
   height="26.139999mm"
   width="26.139999mm"
   xml:space="preserve"><metadata
   id="metadata22"><rdf:RDF><cc:Work
       rdf:about=""><dc:format>image/svg+xml</dc:format><dc:type
         rdf:resource="http://purl.org/dc/dcmitype/StillImage" /><dc:title></dc:title></cc:Work></rdf:RDF></metadata><sodipodi:namedview
   inkscape:current-layer="svg18"
   inkscape:window-maximized="0"
   inkscape:window-y="27"
   inkscape:window-x="66"
   inkscape:cy="49.398427"
   inkscape:cx="49.398426"
   inkscape:zoom="0.77504209"
   fit-margin-bottom="0"
   fit-margin-right="0"
   fit-margin-left="0"
   fit-margin-top="0"
   showgrid="false"
   id="namedview20"
   inkscape:window-height="480"
   inkscape:window-width="837"
   inkscape:pageshadow="2"
   inkscape:pageopacity="0"
   guidetolerance="10"
   gridtolerance="10"
   objecttolerance="10"
   borderopacity="1"
   bordercolor="#666666"
   pagecolor="#ffffff" />
 <defs
   id="defs9">
  <style
   id="style2"
   type="text/css">
   <![CDATA[
    .fil1 {fill:#FCFCFC}
    .fil0 {fill:url(#id0)}
   ]]>
  </style>
  <linearGradient
   y2="13828.8"
   x2="11455.2"
   y1="15816.2"
   x1="9606.04"
   gradientUnits="userSpaceOnUse"
   id="id0">
   <stop
   id="stop4"
   style="stop-opacity:1; stop-color:#F6B34A"
   offset="0" />
   <stop
   id="stop6"
   style="stop-opacity:1; stop-color:#FC128F"
   offset="1" />
  </linearGradient>
 </defs>
 <g
   transform="translate(-9193,-13543)"
   id="Capa_x0020_1">
  <metadata
   id="CorelCorpID_0Corel-Layer" />
  <g
   id="_2276350032016">
   <rect
   style="fill:url(#id0)"
   id="rect12"
   ry="570"
   rx="570"
   height="2614"
   width="2614"
   y="13543"
   x="9193"
   class="fil0" />
   <path
   id="path14"
   d="m 9622,14223 c -76,203 -87,241 -80,489 l 1,374 16,252 c 88,137 62,175 188,284 98,84 199,129 361,143 l 481,2 340,-4 c 103,-10 180,-42 256,-92 41,-27 67,-48 102,-83 44,-45 46,-67 90,-98 15,-118 79,-72 78,-401 -1,-465 70,-884 -322,-1083 -207,-106 -613,-65 -868,-65 -524,0 -513,179 -643,282 z m 443,324 c -69,180 -80,141 -93,378 23,45 31,111 60,167 24,48 73,118 102,143 81,72 185,125 331,142 93,4 169,-6 246,-42 28,-13 75,-42 96,-58 46,-33 41,-44 88,-71 35,-62 68,-84 99,-173 28,-81 38,-162 25,-252 -44,-309 -331,-501 -627,-442 -179,35 -232,128 -327,208 z m 661,616 c 46,-19 89,-70 115,-113 181,-308 -125,-698 -486,-563 -93,35 -225,153 -223,265 -46,58 -25,183 3,252 33,80 87,131 138,169 128,92 348,106 453,-10 z m 233,-905 c -124,82 -8,252 114,179 116,-69 15,-265 -114,-179 z m -377,1377 c 129,-3 355,37 449,-42 112,-20 212,-133 256,-236 54,-125 36,-309 36,-453 -1,-357 36,-615 -227,-769 -172,-101 -701,-67 -939,-63 -154,3 -286,62 -355,139 -94,106 -124,212 -128,387 v 375 c -5,301 15,444 202,581 157,116 487,86 706,81 z"
   class="fil1" />
  </g>
 </g>
</svg>
